/* XPM */
static char *_950c5d7c73a4b8294ba617f34e503e8ehC4MRyoRvPMhkMy[] = {
/* columns rows colors chars-per-pixel */
"64 64 212 2 ",
"   c None",
".  c black",
"X  c #010101",
"o  c #020202",
"O  c gray1",
"+  c #040404",
"@  c gray2",
"#  c #060606",
"$  c #070707",
"%  c gray3",
"&  c #090909",
"*  c gray4",
"=  c #0B0B0B",
"-  c #0C0C0C",
";  c gray5",
":  c #0E0E0E",
">  c gray6",
",  c #101010",
"<  c #111111",
"1  c gray7",
"2  c #131313",
"3  c gray8",
"4  c #151515",
"5  c #161616",
"6  c gray9",
"7  c #181818",
"8  c #191919",
"9  c gray10",
"0  c #1B1B1B",
"q  c gray11",
"w  c #1D1D1D",
"e  c #1E1E1E",
"r  c gray12",
"t  c #202020",
"y  c gray13",
"u  c #222222",
"i  c #232323",
"p  c gray14",
"a  c #252525",
"s  c gray15",
"d  c #272727",
"f  c #282828",
"g  c gray16",
"h  c #2A2A2A",
"j  c gray17",
"k  c #2C2C2C",
"l  c #2D2D2D",
"z  c gray18",
"x  c #2F2F2F",
"c  c gray19",
"v  c #313131",
"b  c #323232",
"n  c gray20",
"m  c #343434",
"M  c #353535",
"N  c gray21",
"B  c #373737",
"V  c gray22",
"C  c #393939",
"Z  c #3A3A3A",
"A  c gray23",
"S  c #3C3C3C",
"D  c gray24",
"F  c #3E3E3E",
"G  c #3F3F3F",
"H  c gray25",
"J  c #414141",
"K  c gray26",
"L  c #434343",
"P  c #444444",
"I  c #464646",
"U  c gray28",
"Y  c #484848",
"T  c #494949",
"R  c gray29",
"E  c #4B4B4B",
"W  c gray30",
"Q  c #4E4E4E",
"!  c gray31",
"~  c #505050",
"^  c #515151",
"/  c gray32",
"(  c #535353",
")  c gray33",
"_  c #555555",
"`  c #565656",
"'  c gray34",
"]  c #585858",
"[  c gray35",
"{  c #5A5A5A",
"}  c #5B5B5B",
"|  c gray36",
" . c #5D5D5D",
".. c gray37",
"X. c #5F5F5F",
"o. c #626262",
"O. c gray39",
"+. c #646464",
"@. c #656565",
"#. c gray40",
"$. c #676767",
"%. c DimGray",
"&. c #6A6A6A",
"*. c gray42",
"=. c #6C6C6C",
"-. c #6D6D6D",
";. c #6F6F6F",
":. c gray44",
">. c #717171",
",. c #727272",
"<. c gray45",
"1. c #747474",
"2. c gray46",
"3. c #767676",
"4. c #777777",
"5. c gray47",
"6. c #797979",
"7. c gray48",
"8. c #7B7B7B",
"9. c #7C7C7C",
"0. c gray49",
"q. c #7E7E7E",
"w. c gray50",
"e. c #808080",
"r. c #818181",
"t. c gray51",
"y. c #838383",
"u. c #848484",
"i. c gray52",
"p. c #868686",
"a. c gray53",
"s. c #888888",
"d. c #898989",
"f. c gray54",
"g. c #8B8B8B",
"h. c gray55",
"j. c #8D8D8D",
"k. c #8E8E8E",
"l. c gray56",
"z. c #909090",
"x. c gray57",
"c. c #929292",
"v. c #939393",
"b. c gray58",
"n. c #959595",
"m. c gray59",
"M. c #979797",
"N. c #989898",
"B. c gray60",
"V. c #9A9A9A",
"C. c #9B9B9B",
"Z. c gray61",
"A. c #9D9D9D",
"S. c gray62",
"D. c #9F9F9F",
"F. c #A0A0A0",
"G. c gray63",
"H. c #A2A2A2",
"J. c gray64",
"K. c #A4A4A4",
"L. c #A5A5A5",
"P. c gray65",
"I. c #A7A7A7",
"U. c gray66",
"Y. c #A9A9A9",
"T. c #AAAAAA",
"R. c gray67",
"E. c #ACACAC",
"W. c gray68",
"Q. c #AEAEAE",
"!. c #AFAFAF",
"~. c gray69",
"^. c #B1B1B1",
"/. c #B2B2B2",
"(. c gray70",
"). c #B4B4B4",
"_. c gray71",
"`. c #B6B6B6",
"'. c #B7B7B7",
"]. c gray72",
"[. c #B9B9B9",
"{. c gray73",
"}. c #BBBBBB",
"|. c #BCBCBC",
" X c gray74",
".X c gray",
"XX c gray75",
"oX c #C0C0C0",
"OX c #C1C1C1",
"+X c gray76",
"@X c #C3C3C3",
"#X c gray77",
"$X c #C5C5C5",
"%X c #C6C6C6",
"&X c gray78",
"*X c #C8C8C8",
"=X c gray79",
"-X c #CACACA",
";X c #CBCBCB",
":X c gray80",
">X c #CDCDCD",
",X c #CECECE",
"<X c gray81",
"1X c #D0D0D0",
"2X c gray82",
"3X c #D2D2D2",
"4X c LightGray",
"5X c gray83",
"6X c #D5D5D5",
"7X c gray84",
"8X c #D7D7D7",
"9X c #D8D8D8",
/* pixels */
". . . . . . . . . . . . . . . > . . . . . .                       . > 6 7 w p p x p w 6 > # . . . # > 6 w h h h h h p 7 7 2 . . ",
". x x h i 7 2 % > w h D X.d.S.G.V.p.@.Y N h w 6 6 6 6 6 6 6 > .   x v.V.I.Y.).).).).I.G.m.v.k.d.p.d.v.V.I.[.[.[.[.).(.S.S.k.7   ",
"w Q.<X#X).I.G.V.S.Q.#X<X<X1X1X1X1X1X1X1X1XoX(.Y.Y.Y.I.I.I.Y.p.2   D (.).[.[.XX[.[.XXXXoXoXoXoXoX#X#XoXXX[.[.[.[.[.[.).[.[.).x   ",
"h #X1X<X<X1X1X<X<X<X<X<X<X<X1X1X1X<X1X1X1X1X1X1X<X<X<X<X<X1XQ.w   J XXXXXX[.[.).).[.[.[.).).).).[.[.[.[.[.[.[.[.[.[.[.).[.[.W   ",
"N <X1X1X1X1X1X<X<X<X1X1X1X1X1X1X1X1X1X5X1X1X1X1X1X<X1X1X1X1XQ.w   Y [.XXoXXXoXXXXX[.[.[.[.[.[.[.XXXXXXXXXX[.[.).[.[.XX[.XX#X@.  ",
"V *X<X<X<X<X<X<X<X<X<X<X<X<X*X*X*X*X<X<X<X<X<X<X<X<X<X<X<X<XY.w   *.[.XXXXXXXXXX[.[.).).[.).[.[.[.XXXXoXoXoXoXoXoXoXoXXXXXXXW   ",
"N [.XXXXoXoXoXoXoXoXoXoXoXoXoXoXoXoXoXoXoX#XoXoXoXoXoXoXoX#XG.7 . d.oXoX#X*X#X#XoXoXoXoXoXoXXXXX[.[.[.[.[.[.[.[.[.[.[.[.[.[.D   ",
"n [.[.[.[.[.[.[.[.[.[.[.[.[.[.[.[.[.[.[.[.[.[.[.[.[.[.[.[.XXS.7 % d.).(.(.(.).).).).).[.[.[.[.).[.[.[.[.XXXXXX[.[.[.).).).).n   ",
"n ).).[.[.[.[.[.[.[.[.XX[.[.[.[.).[.[.).).).[.[.[.[.[.[.[.[.m.6 6 m.).).).).[.[.[.[.[.[.[.[.[.[.).(.(.(.Q.Q.Q.Q.Q.Q.(.(.(.Q.p   ",
"h (.[.[.[.).).).(.(.(.Q.Q.(.(.(.(.(.(.(.(.(.(.Q.(.(.).).(.(.k.2 2 m.XXXXXXXXXXXXXXXXoXoXoXoXoXXX[.[.).[.[.[.[.[.[.XX[.[.[.).x   ",
"6 v.(.Q.Q.Q.Q.Q.Q.Q.Q.Q.Q.Q.Q.Q.Q.Q.Q.Q.Q.Y.Y.Y.Q.Q.Q.Q.Q.Q.p.> > m.oXoXoXoXoXoXoXoXoXXXoXXXXXXX[.[.).).).).).).).).).).[.).V   ",
"# q.I.Y.Y.Y.Y.Y.Y.Y.Y.Y.Y.Y.Y.Y.Y.Y.Q.Q.Q.Y.Y.Y.Y.Y.Y.Y.Y.Q.y.% # k.[.[.XXoXoXoXoXoXoXoXXXXXXXoXoXoXXXXXXX[.[.[.XXXX[.[.[.[.Y   ",
"  *.I.Y.I.I.I.I.I.I.I.I.I.I.I.I.I.Y.I.I.Y.Y.I.I.I.I.I.I.I.Y.q.% . p.).(.(.(.).).[.[.[.[.[.[.[.XXoXoXoXoXoXoXoXoXXXXXXXXXXXXXI   ",
". *.S.S.S.S.S.S.S.S.S.S.S.G.S.S.S.S.S.G.G.I.I.G.G.G.S.G.G.S.@.    1.oXoX[.[.[.XXXXXX[.XXXXXX[.[.XXXXXX[.[.[.[.).).).(.(.(.(.N   ",
"> q.S.S.S.S.S.S.S.S.S.S.S.S.S.S.S.S.S.V.S.S.S.S.S.S.S.S.S.m.n     _ XXoXXX[.[.XXXX[.XXXXXXoXXXoXoXoXoX#X#X#X#X*X*XoXoXoXoXY.p   ",
"2 >.q.p.d.v.m.m.m.m.m.m.V.V.V.V.V.V.V.V.V.V.V.V.d.q.6.1.@.Y #     x 1.;.( Y N n h h h h h h h h n D ( @.q.d.k.d.p.;.( V x i .   ",
"n n n N N V V V n x n N J _ _ _ _ J D n h p w w 6 % # . # # % % % # . . . . . .                   . # # # # % % # 2 6 7 i p x n ",
"5X5X5X5X5X1X5X1XXX(.Y.G.S.q.] % # 6.S.S.S.S.S.S.S.S.S.S.G.G.G.G.G.G.S.S.V.v.6.6.6.6.6.6.6.6.] .   ] G.G.G.G.G.G.G.Y.Q.(.XXXX<X5X",
"1X5X5X5X1X1X1X1X1X5X5X5X5X1XXXp # S.5X5X1X1X1X5X1X1X1X1X1X1X1X1X1X1X1X5X5X1X1X1X1X1X1X1X1X1Xm..   o.1X1X5X1X1X1X1X1X5X5X1X1X5X5X",
"*X*X*X*X<X<X<X<X<X<X<X<X<X<X*Xx . v.1X1X<X1X1X<X1X1X1X1X1X1X1X1X5X5X5X1X5X1X1X1X1X1X1X<X<X<X1.    W *X<X<X<X<X<X<X<X<X<X<X*X*X*X",
"<X<X<X*X*X*X*X*X*X*X*X*X*X<X*XN . 1.*X<X<X<X<X<X<X<X<X<X<X<X*X*X*X*X*X*X*X*X*X*X*X*X<X*X<X*X@.    J #X*X*X*X*X<X<X<X*X*X*X<X<X<X",
"#X#X#X#X#X#X#X#X#X#X#X#X#X#XoXN . 6.oX#X#X*X#X#X#X#XoXoXoXoXoXoXoXoXoXoXoXoX#X#X#X*X*X*X*X*X1.    _ oXoXoX#XoXoXoX#X#XoX#X#X#X#X",
"oXXXXXXXoXoXoXoXoXoXoXoXoXoX[.N . k.oX#XoX#X#XoXXXXXXXXXXXXXXXoXXXXXXXXXXXXXXXXXXXXXXXXXXXXXy.    y.oXoXoXoXoXXXXXXXXXXXXXXXXXXX",
"[.[.[.[.[.[.XXXXXXXXXX[.XXXX[.n % v.XXXXXXXX[.[.[.[.[.[.XX[.[.[.).).).).).).).).).).).[.[.[.d.. % k.[.[.[.[.[.[.[.[.[.[.[.[.[.[.",
").).).).).[.XX[.[.[.[.).).).(.h 6 m.).[.[.[.[.[.[.[.[.[.[.).).).(.(.).).).).).).).).).).[.[.d.# 2 k.(.(.(.(.).(.(.).).).).).).).",
"(.Q.(.Q.Q.Q.(.(.(.Q.Q.(.(.(.(.h % d.(.(.(.(.(.(.(.(.Q.Q.(.Q.Q.Q.Q.Q.(.(.Q.Q.Y.Q.Q.Q.Q.Q.Q.Q.d.2 2 v.).).).).[.).).(.(.(.(.Q.Q.(.",
"Y.Y.I.I.I.I.I.I.I.Y.Y.Y.Y.Y.I.h . *.Y.Q.Q.Q.Q.Q.Q.Y.Y.Y.Y.Y.Y.Y.Y.I.Y.Y.Y.Y.@.>.p.G.Y.Y.Q.Q.S.w % y.Y.Y.Y.Y.Y.Y.Q.Q.Y.Y.Y.Q.Y.Q.",
"I.I.I.I.I.I.I.I.Y.Y.Y.Y.Q.Q.Y.h   N I.Y.Y.Y.Y.Y.Y.I.Y.Y.Y.Y.Y.Y.Y.Y.Y.I.I.I.G.k.>.D I >.p.S.S.h # q.I.I.I.I.I.I.I.I.I.I.I.I.I.I.",
"S.S.S.G.G.G.G.G.G.I.I.I.I.I.S.i   w V.G.G.G.G.G.G.G.G.I.I.I.I.I.I.I.I.I.I.I.I.I.I.S.o.7 > i V 2 . 1.G.G.G.G.G.G.G.G.G.G.G.G.G.S.",
"S.S.S.S.S.S.G.G.G.G.G.G.G.G.y.2   x S.G.S.S.S.G.G.G.G.G.G.G.S.S.S.S.S.S.S.S.V.S.S.G.S.k._ 6 .   . ;.S.S.S.S.S.S.S.S.G.S.S.S.S.S.",
"S.S.S.S.m.d.d.d.d.k.V.V.S.S.1.#   ( V.S.S.S.S.V.S.V.V.V.S.S.S.S.S.S.S.S.G.G.S.S.S.S.S.S.V.y.J .   ] V.S.S.S.S.S.S.S.S.S.S.S.V.S.",
"h i i i w 7 7 7 6 7 w i p x w   . ] q.1.1.>.] Y D x D D J _ _ ] ] ;.>.>.>.1.1.1.1.1.@.W V h 2 .   h o.>.1.1.q.y.p.q.1.>.@.( D x ",
"  i D D D D D D n x i 7 2 # . . . % % # . . . . .   .             . . . . # # # # .     . . . # 6 2 2 2 6 6 7 7 6 > # . . . .   ",
"  k.5X1X5X5X5X5X5X<XXX(.Y.G.S.k.6.6.( . V 6.6.X._ _ W D D N #     . 6 6 6 6 6 6 6 w x V ( >.m.S.Y.Y.Y.Y.Y.Y.Y.Y.G.S.V.V.6.6.I . ",
". V.5X5X5X5X9X5X5X5X5X5X5X5X5X5X1X1XX._ XX5X1X5X1X1X1X1X1X*Xx     n I.I.Y.I.I.I.I.(.*X1X1X5X5X5X5X5X5X5X5X5X5X5X5X5X5X5X1X5XV.. ",
"> S.<X1X1X1X1X<X<X<X<X<X<X<X<X<X<X[.;.oX<X<X<X<X<X1X<X1X1X<XY     x #X*X<X*X<X*X*X*X*X<X<X<X<X<X<X<X<X<X<X<X<X<X<X<X<X<X<X<Xd.  ",
"7 I.*X<X<X<X<X<X<X<X<X<X<X<X<X<X<XXX*X<X<X<X<X*X*X<X*X*X*X*X;.    i (.*X*X*X<X<X<X<X1X1X1X1X<X<X<X1X1X1X1X1X1X1X1X1X1X1X1X1Xq.  ",
"i (.*X*X*X*X*X<X<X<X<X<X*X*X*X*X*X*X*X*X*X*X*X*X*X*X<X<X*X*Xy.    7 I.#X#X#XoXoX#X#X#X#X#X#X#X#X#X#X*X*X*X*X*X*X*X*X*X*X*X*X>.  ",
"p [.#X#X*X#X#X#X#X#X#X#XoXoX#X#X#X#X#X#XoXoXoXoX#X#XoXoXoXoXk..   2 V.oXXX[.XXXXoXXXXXXXXXXXXXoXoXXXoXoXoXoXoXoXoXoXoXXXoXoX;.  ",
"p [.XXXXXX[.[.[.[.[.[.[.XX[.XXXX[.XXXX[.XX[.[.[.[.[.[.[.[.[.d..   > k.[.[.[.[.[.[.[.[.[.[.[.[.[.XXXX[.[.[.XX[.XXXXXXoXXXXX[.*.  ",
"p (.).).).(.(.(.(.(.(.(.(.Q.(.(.(.(.(.(.(.(.(.(.).).).).(.(.p.#   # d.).).).).).).).).).).).).).).).).).).).).).).[.).).[.[.*.  ",
"p (.).(.(.(.(.(.(.(.Q.Q.Q.Q.Q.(.(.(.(.(.(.(.(.(.(.(.(.).(.(.p.#   6 k.Q.Q.Q.Q.Q.Q.Y.Y.Y.Y.Y.Y.Y.Y.Y.Q.Q.Q.Q.Q.Q.(.Q.Q.Q.Q.(.1.  ",
"i Y.Q.Q.(.(.(.(.(.(.(.).(.(.(.(.Q.Q.Q.Q.Q.Q.Q.Q.Q.Q.Q.Q.Q.Q.y.#   n Y.Q.Q.Q.Q.Y.Y.Q.Q.Q.Y.Y.Y.Y.Y.Y.I.I.I.I.I.I.I.I.Y.Q.Q.Q.q.. ",
"i I.Y.Y.I.Y.I.I.I.I.I.I.I.I.I.I.I.I.I.I.I.I.I.Y.Y.Y.Y.Y.Q.Q.y.#   @.Q.Q.Q.Q.Q.Y.Y.Y.Y.Q.Q.Q.Q.Y.Y.Y.Y.Y.Y.Q.Y.Q.Q.Q.Q.Q.(.(.p.# ",
"w V.G.I.G.G.G.I.G.G.I.G.I.G.G.I.G.G.I.I.I.I.G.G.I.I.I.I.I.I.q.% % q.G.G.G.I.I.G.I.I.I.I.I.I.I.G.G.G.I.I.I.Y.Y.I.I.I.I.G.G.G.q.> ",
"6 p.S.S.S.S.S.S.S.S.S.S.S.S.S.S.G.G.G.S.S.S.S.S.G.G.G.G.S.S.q.> > q.S.S.S.S.S.S.S.S.S.S.S.G.G.G.S.S.G.G.G.G.G.S.G.G.S.S.S.S.6.# ",
"> q.S.S.S.S.S.S.S.V.V.V.V.V.V.V.V.V.V.V.V.V.V.V.V.V.V.V.V.S.q.2 > q.S.S.S.S.V.V.V.V.V.V.V.V.V.V.V.S.S.S.S.S.S.S.S.S.S.S.S.S.*.  ",
"# X.1.>.>.>.o.] ] _ _ ] ;.>.;.>.>.;.] _ I D N x x V D J _ ] Y % > >.p.p.p.p.p.p.p.d.d.m.V.V.V.V.V.V.V.V.V.V.V.V.V.V.V.k.d.p.J   ",
". # # . . . . . . . . . . . . . . . # # # # # # # # . . . . . . . 2 6 6 6 6 6 6 6 6 6 w w i p h h p p p h h h h p w w 7 6 6 .   ",
"_ _ _ X.1.1.y.m.6.1.] _ I V x .   *.G.G.G.G.G.G.G.G.S.y.;._ D D D D D D D D D D Y ] *.6.v.S.>..   w v.V.V.k.1.X._ _ _ _ _ _ _ _ ",
"<X<X1X1X1X1X1X1X1X1X1X1X1X1X).i # S.5X9X9X9X5X5X9X9X9X5X5X5X5X5X5X5X5X1X5X1X5X1X1X1X1X1X1X1Xk.    p [.1X1X1X1X<X<X<X<X<X<X<X1X<X",
"1X<X<X<X<X<X<X<X<X<X<X<X1X1X<XN 2 G.<X<X<X<X<X<X<X<X<X<X<X<X<X<X<X<X<X<X<X<X<X<X<X<X<X<X<X<X1.    i ).5X5X5X1X<X<X<X<X1X1X1X1X1X",
"<X<X<X<X<X<X<X*X*X<X*X*X*X<X*XW w (.*X<X<X<X<X*X#X#X#X*X#X#X*X*X*X<X<X*X*X*X*X*X*X*X*X*X*X*XX.    7 Y.<X<X<X1X1X1X<X1X1X<X<X<X<X",
"oXoXoXoXoXoXoXoXoXoX#X#X#X#XoXn 7 Y.*X*X*X*X*X#X#X#X#XoXoXoXoXoXoXoXoXoX#X#X#X#X*X#X*X*X*X#XV     6 G.*X*X*X*X*X#X#X#X#X#X#XoXoX",
"oXXXoXoXoXXXoXoXoXXXoXXXXXXXI.w > m.XXXXXXXXXX[.[.[.[.XXXXXXXX[.[.[.[.[.[.[.XXoXoXoX#XoX#X).p     6 S.#X#X#X#XoXoXoXoXoXoXoXoXoX",
"#X#XoXoXoXoXoXoXoXoXXXoXoXoXv.% # k.[.[.XXXXXXXXoXXXoXoXXXXXXX[.[.[.[.[.[.[.[.[.[.[.[.).).m.6     7 S.XX[.XXXXXXoXoXoXoXoXoXoX#X",
"[.[.[.[.[.[.[.[.[.XX[.).).).>.    q.[.[.[.).[.[.).).).).).).).).[.[.[.[.[.).).).).[.).).).v.2     7 S.oXoXXXoXoXXXXXXXXXXXXXXX[.",
"(.Q.Q.Q.Q.(.(.(.(.(.(.(.(.(.(     @.Q.(.(.(.(.(.(.Q.(.(.).).).).).).).).).).(.(.(.(.).).).V.6     w G.(.(.(.(.Q.Q.Q.Q.Q.(.(.(.(.",
"Q.Q.Q.Q.Y.Q.Q.Q.Q.Q.Q.Q.Q.Q.6..   Y I.I.I.I.I.I.I.I.I.I.Y.Y.Y.Y.I.Y.I.I.I.I.I.I.I.I.I.Y.Q.V.w     h Y.Q.Q.Q.(.Q.(.Q.Q.Q.Q.Q.Q.Q.",
"Y.I.I.Y.Y.Y.Y.Y.Y.Y.I.I.I.I.k.6   V G.I.I.I.I.I.I.I.I.I.I.I.I.G.G.G.G.G.G.G.G.G.G.G.G.G.G.V.w     I Y.Q.Y.Q.Q.Q.Q.Y.Y.Y.Y.Y.Y.Y.",
"G.G.G.G.I.I.I.G.G.G.G.G.G.G.S.p   V S.G.G.G.G.G.G.G.G.G.G.G.G.S.S.S.S.S.G.G.G.G.G.G.G.S.S.S.i     ] G.G.G.G.G.I.G.G.G.G.G.G.G.G.",
"G.G.G.S.S.S.S.S.S.S.S.S.S.S.k.7 . @.G.G.G.G.G.G.G.G.G.G.G.S.G.S.S.G.G.G.G.S.S.S.S.S.S.G.G.S.h     >.G.G.G.G.G.G.S.S.S.S.G.G.G.G.",
"V.S.S.S.S.S.S.S.S.S.S.S.S.S.1.# % q.G.G.S.G.G.G.G.G.G.G.G.G.G.G.S.S.S.S.S.S.S.S.G.G.G.G.G.S.n   # 1.S.S.S.S.S.S.V.S.S.S.S.S.V.V.",
">.1.1.1.1.6.q.q.q.q.q.q.q.q.W   2 1.q.1.1.>.@._ _ ] _ _ ] ] _ _ _ _ ] _ _ _ ] X.>.>.1.1.q.6.x   # ] 6.q.q.d.d.V.S.v.k.p.q.6.1.>."
};
