/* XPM */
static char *_e3dfa7867bc4735d6ee3fa6d1262f81noGq3HuHdI2U1EhP[] = {
/* columns rows colors chars-per-pixel */
"128 128 18 1 ",
"  c black",
". c #030502",
"X c #050903",
"o c #060B04",
"O c #070C04",
"+ c #0A1107",
"@ c #0D1709",
"# c #0F1A0A",
"$ c #14230E",
"% c #15240E",
"& c #1B2F13",
"* c #1F3615",
"= c #29471C",
"- c #2A481D",
"; c #2F5120",
": c #375F26",
"> c #3F6C2B",
", c #7ED957",
/* pixels */
"#                                                                                                                               ",
" &>>>>>>>>>>>>>>>>>>>>>>>>>>>>>>>>>>>>>>>>o%>>>>>>>>>>>>>>>>>>>>>>>>>>>>>>>>>>>>>>>>@@>>>>>>>>>>>>>>>>>>>>>>>>>>>>>>>>>>>>>>>>$O",
" :,,,,,,,,,,,,,,,,,,,,,,,,,,,,,,,,,,,,,,,,@-,,,,,,,,,,,,,,,,,,,,,,,,,,,,,,,,,,,,,,,,&&,,,,,,,,,,,,,,,,,,,,,,,,,,,,,,,,,,,,,,,,=#",
" :,,,,,,,,,,,,,,,,,,,,,,,,,,,,,,,,,,,,,,,,@-,,,,,,,,,,,,,,,,,,,,,,,,,,,,,,,,,,,,,,,,&&,,,,,,,,,,,,,,,,,,,,,,,,,,,,,,,,,,,,,,,,=#",
" :,,,,,,,,,,,,,,,,,,,,,,,,,,,,,,,,,,,,,,,,@-,,,,,,,,,,,,,,,,,,,,,,,,,,,,,,,,,,,,,,,,&&,,,,,,,,,,,,,,,,,,,,,,,,,,,,,,,,,,,,,,,,=#",
" :,,,,,,,,,,,,,,,,,,,,,,,,,,,,,,,,,,,,,,,,@-,,,,,,,,,,,,,,,,,,,,,,,,,,,,,,,,,,,,,,,,&&,,,,,,,,,,,,,,,,,,,,,,,,,,,,,,,,,,,,,,,,=#",
" :,,,,,,,,,,,,,,,,,,,,,,,,,,,,,,,,,,,,,,,,@-,,,,,,,,,,,,,,,,,,,,,,,,,,,,,,,,,,,,,,,,&&,,,,,,,,,,,,,,,,,,,,,,,,,,,,,,,,,,,,,,,,=#",
" :,,,,,,,,,,,,,,,,,,,,,,,,,,,,,,,,,,,,,,,,@-,,,,,,,,,,,,,,,,,,,,,,,,,,,,,,,,,,,,,,,,&&,,,,,,,,,,,,,,,,,,,,,,,,,,,,,,,,,,,,,,,,=#",
" :,,,,,,,,,,,,,,,,,,,,,,,,,,,,,,,,,,,,,,,,@-,,,,,,,,,,,,,,,,,,,,,,,,,,,,,,,,,,,,,,,,&&,,,,,,,,,,,,,,,,,,,,,,,,,,,,,,,,,,,,,,,,=#",
" :,,,,,,,,,,,,,,,,,,,,,,,,,,,,,,,,,,,,,,,,@-,,,,,,,,,,,,,,,,,,,,,,,,,,,,,,,,,,,,,,,,&&,,,,,,,,,,,,,,,,,,,,,,,,,,,,,,,,,,,,,,,,=#",
" :,,,,,,,,,,,,,,,,,,,,,,,,,,,,,,,,,,,,,,,,@-,,,,,,,,,,,,,,,,,,,,,,,,,,,,,,,,,,,,,,,,&&,,,,,,,,,,,,,,,,,,,,,,,,,,,,,,,,,,,,,,,,=#",
" :,,,,,,,,,,,,,,,,,,,,,,,,,,,,,,,,,,,,,,,,@-,,,,,,,,,,,,,,,,,,,,,,,,,,,,,,,,,,,,,,,,&&,,,,,,,,,,,,,,,,,,,,,,,,,,,,,,,,,,,,,,,,=#",
" :,,,,,,,,,,,,,,,,,,,,,,,,,,,,,,,,,,,,,,,,@-,,,,,,,,,,,,,,,,,,,,,,,,,,,,,,,,,,,,,,,,&&,,,,,,,,,,,,,,,,,,,,,,,,,,,,,,,,,,,,,,,,=#",
" :,,,,,,,,,,,,,,,,,,,,,,,,,,,,,,,,,,,,,,,,@-,,,,,,,,,,,,,,,,,,,,,,,,,,,,,,,,,,,,,,,,&&,,,,,,,,,,,,,,,,,,,,,,,,,,,,,,,,,,,,,,,,=#",
" :,,,,,,,,,,,,,,,,,,,,,,,,,,,,,,,,,,,,,,,,@-,,,,,,,,,,,,,,,,,,,,,,,,,,,,,,,,,,,,,,,,&&,,,,,,,,,,,,,,,,,,,,,,,,,,,,,,,,,,,,,,,,=#",
" :,,,,,,,,,,,,,,,,,,,,,,,,,,,,,,,,,,,,,,,,@-,,,,,,,,,,,,,,,,,,,,,,,,,,,,,,,,,,,,,,,,&&,,,,,,,,,,,,,,,,,,,,,,,,,,,,,,,,,,,,,,,,=#",
" :,,,,,,,,,,,,,,,,,,,,,,,,,,,,,,,,,,,,,,,,@-,,,,,,,,,,,,,,,,,,,,,,,,,,,,,,,,,,,,,,,,&&,,,,,,,,,,,,,,,,,,,,,,,,,,,,,,,,,,,,,,,,=#",
" :,,,,,,,,,,,,,,,,,,,,,,,,,,,,,,,,,,,,,,,,@-,,,,,,,,,,,,,,,,,,,,,,,,,,,,,,,,,,,,,,,,&&,,,,,,,,,,,,,,,,,,,,,,,,,,,,,,,,,,,,,,,,=#",
" :,,,,,,,,,,,,,,,,,,,,,,,,,,,,,,,,,,,,,,,,@-,,,,,,,,,,,,,,,,,,,,,,,,,,,,,,,,,,,,,,,,&&,,,,,,,,,,,,,,,,,,,,,,,,,,,,,,,,,,,,,,,,=#",
" :,,,,,,,,,,,,,,,,,,,,,,,,,,,,,,,,,,,,,,,,@-,,,,,,,,,,,,,,,,,,,,,,,,,,,,,,,,,,,,,,,,&&,,,,,,,,,,,,,,,,,,,,,,,,,,,,,,,,,,,,,,,,=#",
" :,,,,,,,,,,,,,,,,,,,,,,,,,,,,,,,,,,,,,,,,@-,,,,,,,,,,,,,,,,,,,,,,,,,,,,,,,,,,,,,,,,&&,,,,,,,,,,,,,,,,,,,,,,,,,,,,,,,,,,,,,,,,=#",
" :,,,,,,,,,,,,,,,,,,,,,,,,,,,,,,,,,,,,,,,,@-,,,,,,,,,,,,,,,,,,,,,,,,,,,,,,,,,,,,,,,,&&,,,,,,,,,,,,,,,,,,,,,,,,,,,,,,,,,,,,,,,,=#",
" :,,,,,,,,,,,,,,,,,,,,,,,,,,,,,,,,,,,,,,,,@-,,,,,,,,,,,,,,,,,,,,,,,,,,,,,,,,,,,,,,,,&&,,,,,,,,,,,,,,,,,,,,,,,,,,,,,,,,,,,,,,,,=#",
" :,,,,,,,,,,,,,,,,,,,,,,,,,,,,,,,,,,,,,,,,@-,,,,,,,,,,,,,,,,,,,,,,,,,,,,,,,,,,,,,,,,&&,,,,,,,,,,,,,,,,,,,,,,,,,,,,,,,,,,,,,,,,=#",
" :,,,,,,,,,,,,,,,,,,,,,,,,,,,,,,,,,,,,,,,,@-,,,,,,,,,,,,,,,,,,,,,,,,,,,,,,,,,,,,,,,,&&,,,,,,,,,,,,,,,,,,,,,,,,,,,,,,,,,,,,,,,,=#",
" :,,,,,,,,,,,,,,,,,,,,,,,,,,,,,,,,,,,,,,,,@-,,,,,,,,,,,,,,,,,,,,,,,,,,,,,,,,,,,,,,,,&&,,,,,,,,,,,,,,,,,,,,,,,,,,,,,,,,,,,,,,,,=#",
" :,,,,,,,,,,,,,,,,,,,,,,,,,,,,,,,,,,,,,,,,@-,,,,,,,,,,,,,,,,,,,,,,,,,,,,,,,,,,,,,,,,&&,,,,,,,,,,,,,,,,,,,,,,,,,,,,,,,,,,,,,,,,=#",
" :,,,,,,,,,,,,,,,,,,,,,,,,,,,,,,,,,,,,,,,,@-,,,,,,,,,,,,,,,,,,,,,,,,,,,,,,,,,,,,,,,,&&,,,,,,,,,,,,,,,,,,,,,,,,,,,,,,,,,,,,,,,,=#",
" :,,,,,,,,,,,,,,,,,,,,,,,,,,,,,,,,,,,,,,,,@-,,,,,,,,,,,,,,,,,,,,,,,,,,,,,,,,,,,,,,,,&&,,,,,,,,,,,,,,,,,,,,,,,,,,,,,,,,,,,,,,,,=#",
" :,,,,,,,,,,,,,,,,,,,,,,,,,,,,,,,,,,,,,,,,@-,,,,,,,,,,,,,,,,,,,,,,,,,,,,,,,,,,,,,,,,&&,,,,,,,,,,,,,,,,,,,,,,,,,,,,,,,,,,,,,,,,=#",
" :,,,,,,,,,,,,,,,,,,,,,,,,,,,,,,,,,,,,,,,,@-,,,,,,,,,,,,,,,,,,,,,,,,,,,,,,,,,,,,,,,,&&,,,,,,,,,,,,,,,,,,,,,,,,,,,,,,,,,,,,,,,,=#",
" :,,,,,,,,,,,,,,,,,,,,,,,,,,,,,,,,,,,,,,,,@-,,,,,,,,,,,,,,,,,,,,,,,,,,,,,,,,,,,,,,,,&&,,,,,,,,,,,,,,,,,,,,,,,,,,,,,,,,,,,,,,,,=#",
" :,,,,,,,,,,,,,,,,,,,,,,,,,,,,,,,,,,,,,,,,@-,,,,,,,,,,,,,,,,,,,,,,,,,,,,,,,,,,,,,,,,&&,,,,,,,,,,,,,,,,,,,,,,,,,,,,,,,,,,,,,,,,=#",
" :,,,,,,,,,,,,,,,,,,,,,,,,,,,,,,,,,,,,,,,,@-,,,,,,,,,,,,,,,,,,,,,,,,,,,,,,,,,,,,,,,,&&,,,,,,,,,,,,,,,,,,,,,,,,,,,,,,,,,,,,,,,,=#",
" :,,,,,,,,,,,,,,,,,,,,,,,,,,,,,,,,,,,,,,,,@-,,,,,,,,,,,,,,,,,,,,,,,,,,,,,,,,,,,,,,,,&&,,,,,,,,,,,,,,,,,,,,,,,,,,,,,,,,,,,,,,,,=#",
" :,,,,,,,,,,,,,,,,,,,,,,,,,,,,,,,,,,,,,,,,@-,,,,,,,,,,,,,,,,,,,,,,,,,,,,,,,,,,,,,,,,&&,,,,,,,,,,,,,,,,,,,,,,,,,,,,,,,,,,,,,,,,=#",
" :,,,,,,,,,,,,,,,,,,,,,,,,,,,,,,,,,,,,,,,,@-,,,,,,,,,,,,,,,,,,,,,,,,,,,,,,,,,,,,,,,,&&,,,,,,,,,,,,,,,,,,,,,,,,,,,,,,,,,,,,,,,,=#",
" :,,,,,,,,,,,,,,,,,,,,,,,,,,,,,,,,,,,,,,,,@-,,,,,,,,,,,,,,,,,,,,,,,,,,,,,,,,,,,,,,,,&&,,,,,,,,,,,,,,,,,,,,,,,,,,,,,,,,,,,,,,,,=#",
" :,,,,,,,,,,,,,,,,,,,,,,,,,,,,,,,,,,,,,,,,@-,,,,,,,,,,,,,,,,,,,,,,,,,,,,,,,,,,,,,,,,&&,,,,,,,,,,,,,,,,,,,,,,,,,,,,,,,,,,,,,,,,=#",
" :,,,,,,,,,,,,,,,,,,,,,,,,,,,,,,,,,,,,,,,,@-,,,,,,,,,,,,,,,,,,,,,,,,,,,,,,,,,,,,,,,,&&,,,,,,,,,,,,,,,,,,,,,,,,,,,,,,,,,,,,,,,,=#",
" :,,,,,,,,,,,,,,,,,,,,,,,,,,,,,,,,,,,,,,,,@-,,,,,,,,,,,,,,,,,,,,,,,,,,,,,,,,,,,,,,,,&&,,,,,,,,,,,,,,,,,,,,,,,,,,,,,,,,,,,,,,,,=#",
" :,,,,,,,,,,,,,,,,,,,,,,,,,,,,,,,,,,,,,,,,@-,,,,,,,,,,,,,,,,,,,,,,,,,,,,,,,,,,,,,,,,&&,,,,,,,,,,,,,,,,,,,,,,,,,,,,,,,,,,,,,,,,=#",
" O######################################## X########################################..########################################X ",
" %;;;;;;;;;;;;;;;;;;;;;;;;;;;;;;;;;;;;;;;;X#;;;;;;;;;;;;;;;;;;;;;;;;;;;;;;;;;;;;;;;;++;;;;;;;;;;;;;;;;;;;;;;;;;;;;;;;;;;;;;;;;#X",
" :,,,,,,,,,,,,,,,,,,,,,,,,,,,,,,,,,,,,,,,,@-,,,,,,,,,,,,,,,,,,,,,,,,,,,,,,,,,,,,,,,,&&,,,,,,,,,,,,,,,,,,,,,,,,,,,,,,,,,,,,,,,,=#",
" :,,,,,,,,,,,,,,,,,,,,,,,,,,,,,,,,,,,,,,,,@-,,,,,,,,,,,,,,,,,,,,,,,,,,,,,,,,,,,,,,,,&&,,,,,,,,,,,,,,,,,,,,,,,,,,,,,,,,,,,,,,,,=#",
" :,,,,,,,,,,,,,,,,,,,,,,,,,,,,,,,,,,,,,,,,@-,,,,,,,,,,,,,,,,,,,,,,,,,,,,,,,,,,,,,,,,&&,,,,,,,,,,,,,,,,,,,,,,,,,,,,,,,,,,,,,,,,=#",
" :,,,,,,,,,,,,,,,,,,,,,,,,,,,,,,,,,,,,,,,,@-,,,,,,,,,,,,,,,,,,,,,,,,,,,,,,,,,,,,,,,,&&,,,,,,,,,,,,,,,,,,,,,,,,,,,,,,,,,,,,,,,,=#",
" :,,,,,,,,,,,,,,,,,,,,,,,,,,,,,,,,,,,,,,,,@-,,,,,,,,,,,,,,,,,,,,,,,,,,,,,,,,,,,,,,,,&&,,,,,,,,,,,,,,,,,,,,,,,,,,,,,,,,,,,,,,,,=#",
" :,,,,,,,,,,,,,,,,,,,,,,,,,,,,,,,,,,,,,,,,@-,,,,,,,,,,,,,,,,,,,,,,,,,,,,,,,,,,,,,,,,&&,,,,,,,,,,,,,,,,,,,,,,,,,,,,,,,,,,,,,,,,=#",
" :,,,,,,,,,,,,,,,,,,,,,,,,,,,,,,,,,,,,,,,,@-,,,,,,,,,,,,,,,,,,,,,,,,,,,,,,,,,,,,,,,,&&,,,,,,,,,,,,,,,,,,,,,,,,,,,,,,,,,,,,,,,,=#",
" :,,,,,,,,,,,,,,,,,,,,,,,,,,,,,,,,,,,,,,,,@-,,,,,,,,,,,,,,,,,,,,,,,,,,,,,,,,,,,,,,,,&&,,,,,,,,,,,,,,,,,,,,,,,,,,,,,,,,,,,,,,,,=#",
" :,,,,,,,,,,,,,,,,,,,,,,,,,,,,,,,,,,,,,,,,@-,,,,,,,,,,,,,,,,,,,,,,,,,,,,,,,,,,,,,,,,&&,,,,,,,,,,,,,,,,,,,,,,,,,,,,,,,,,,,,,,,,=#",
" :,,,,,,,,,,,,,,,,,,,,,,,,,,,,,,,,,,,,,,,,@-,,,,,,,,,,,,,,,,,,,,,,,,,,,,,,,,,,,,,,,,&&,,,,,,,,,,,,,,,,,,,,,,,,,,,,,,,,,,,,,,,,=#",
" :,,,,,,,,,,,,,,,,,,,,,,,,,,,,,,,,,,,,,,,,@-,,,,,,,,,,,,,,,,,,,,,,,,,,,,,,,,,,,,,,,,&&,,,,,,,,,,,,,,,,,,,,,,,,,,,,,,,,,,,,,,,,=#",
" :,,,,,,,,,,,,,,,,,,,,,,,,,,,,,,,,,,,,,,,,@-,,,,,,,,,,,,,,,,,,,,,,,,,,,,,,,,,,,,,,,,&&,,,,,,,,,,,,,,,,,,,,,,,,,,,,,,,,,,,,,,,,=#",
" :,,,,,,,,,,,,,,,,,,,,,,,,,,,,,,,,,,,,,,,,@-,,,,,,,,,,,,,,,,,,,,,,,,,,,,,,,,,,,,,,,,&&,,,,,,,,,,,,,,,,,,,,,,,,,,,,,,,,,,,,,,,,=#",
" :,,,,,,,,,,,,,,,,,,,,,,,,,,,,,,,,,,,,,,,,@-,,,,,,,,,,,,,,,,,,,,,,,,,,,,,,,,,,,,,,,,&&,,,,,,,,,,,,,,,,,,,,,,,,,,,,,,,,,,,,,,,,=#",
" :,,,,,,,,,,,,,,,,,,,,,,,,,,,,,,,,,,,,,,,,@-,,,,,,,,,,,,,,,,,,,,,,,,,,,,,,,,,,,,,,,,&&,,,,,,,,,,,,,,,,,,,,,,,,,,,,,,,,,,,,,,,,=#",
" :,,,,,,,,,,,,,,,,,,,,,,,,,,,,,,,,,,,,,,,,@-,,,,,,,,,,,,,,,,,,,,,,,,,,,,,,,,,,,,,,,,&&,,,,,,,,,,,,,,,,,,,,,,,,,,,,,,,,,,,,,,,,=#",
" :,,,,,,,,,,,,,,,,,,,,,,,,,,,,,,,,,,,,,,,,@-,,,,,,,,,,,,,,,,,,,,,,,,,,,,,,,,,,,,,,,,&&,,,,,,,,,,,,,,,,,,,,,,,,,,,,,,,,,,,,,,,,=#",
" :,,,,,,,,,,,,,,,,,,,,,,,,,,,,,,,,,,,,,,,,@-,,,,,,,,,,,,,,,,,,,,,,,,,,,,,,,,,,,,,,,,&&,,,,,,,,,,,,,,,,,,,,,,,,,,,,,,,,,,,,,,,,=#",
" :,,,,,,,,,,,,,,,,,,,,,,,,,,,,,,,,,,,,,,,,@-,,,,,,,,,,,,,,,,,,,,,,,,,,,,,,,,,,,,,,,,&&,,,,,,,,,,,,,,,,,,,,,,,,,,,,,,,,,,,,,,,,=#",
" :,,,,,,,,,,,,,,,,,,,,,,,,,,,,,,,,,,,,,,,,@-,,,,,,,,,,,,,,,,,,,,,,,,,,,,,,,,,,,,,,,,&&,,,,,,,,,,,,,,,,,,,,,,,,,,,,,,,,,,,,,,,,=#",
" :,,,,,,,,,,,,,,,,,,,,,,,,,,,,,,,,,,,,,,,,@-,,,,,,,,,,,,,,,,,,,,,,,,,,,,,,,,,,,,,,,,&&,,,,,,,,,,,,,,,,,,,,,,,,,,,,,,,,,,,,,,,,=#",
" :,,,,,,,,,,,,,,,,,,,,,,,,,,,,,,,,,,,,,,,,@-,,,,,,,,,,,,,,,,,,,,,,,,,,,,,,,,,,,,,,,,&&,,,,,,,,,,,,,,,,,,,,,,,,,,,,,,,,,,,,,,,,=#",
" :,,,,,,,,,,,,,,,,,,,,,,,,,,,,,,,,,,,,,,,,@-,,,,,,,,,,,,,,,,,,,,,,,,,,,,,,,,,,,,,,,,&&,,,,,,,,,,,,,,,,,,,,,,,,,,,,,,,,,,,,,,,,=#",
" :,,,,,,,,,,,,,,,,,,,,,,,,,,,,,,,,,,,,,,,,@-,,,,,,,,,,,,,,,,,,,,,,,,,,,,,,,,,,,,,,,,&&,,,,,,,,,,,,,,,,,,,,,,,,,,,,,,,,,,,,,,,,=#",
" :,,,,,,,,,,,,,,,,,,,,,,,,,,,,,,,,,,,,,,,,@-,,,,,,,,,,,,,,,,,,,,,,,,,,,,,,,,,,,,,,,,&&,,,,,,,,,,,,,,,,,,,,,,,,,,,,,,,,,,,,,,,,=#",
" :,,,,,,,,,,,,,,,,,,,,,,,,,,,,,,,,,,,,,,,,@-,,,,,,,,,,,,,,,,,,,,,,,,,,,,,,,,,,,,,,,,&&,,,,,,,,,,,,,,,,,,,,,,,,,,,,,,,,,,,,,,,,=#",
" :,,,,,,,,,,,,,,,,,,,,,,,,,,,,,,,,,,,,,,,,@-,,,,,,,,,,,,,,,,,,,,,,,,,,,,,,,,,,,,,,,,&&,,,,,,,,,,,,,,,,,,,,,,,,,,,,,,,,,,,,,,,,=#",
" :,,,,,,,,,,,,,,,,,,,,,,,,,,,,,,,,,,,,,,,,@-,,,,,,,,,,,,,,,,,,,,,,,,,,,,,,,,,,,,,,,,&&,,,,,,,,,,,,,,,,,,,,,,,,,,,,,,,,,,,,,,,,=#",
" :,,,,,,,,,,,,,,,,,,,,,,,,,,,,,,,,,,,,,,,,@-,,,,,,,,,,,,,,,,,,,,,,,,,,,,,,,,,,,,,,,,&&,,,,,,,,,,,,,,,,,,,,,,,,,,,,,,,,,,,,,,,,=#",
" :,,,,,,,,,,,,,,,,,,,,,,,,,,,,,,,,,,,,,,,,@-,,,,,,,,,,,,,,,,,,,,,,,,,,,,,,,,,,,,,,,,&&,,,,,,,,,,,,,,,,,,,,,,,,,,,,,,,,,,,,,,,,=#",
" :,,,,,,,,,,,,,,,,,,,,,,,,,,,,,,,,,,,,,,,,@-,,,,,,,,,,,,,,,,,,,,,,,,,,,,,,,,,,,,,,,,&&,,,,,,,,,,,,,,,,,,,,,,,,,,,,,,,,,,,,,,,,=#",
" :,,,,,,,,,,,,,,,,,,,,,,,,,,,,,,,,,,,,,,,,@-,,,,,,,,,,,,,,,,,,,,,,,,,,,,,,,,,,,,,,,,&&,,,,,,,,,,,,,,,,,,,,,,,,,,,,,,,,,,,,,,,,=#",
" :,,,,,,,,,,,,,,,,,,,,,,,,,,,,,,,,,,,,,,,,@-,,,,,,,,,,,,,,,,,,,,,,,,,,,,,,,,,,,,,,,,&&,,,,,,,,,,,,,,,,,,,,,,,,,,,,,,,,,,,,,,,,=#",
" :,,,,,,,,,,,,,,,,,,,,,,,,,,,,,,,,,,,,,,,,@-,,,,,,,,,,,,,,,,,,,,,,,,,,,,,,,,,,,,,,,,&&,,,,,,,,,,,,,,,,,,,,,,,,,,,,,,,,,,,,,,,,=#",
" :,,,,,,,,,,,,,,,,,,,,,,,,,,,,,,,,,,,,,,,,@-,,,,,,,,,,,,,,,,,,,,,,,,,,,,,,,,,,,,,,,,&&,,,,,,,,,,,,,,,,,,,,,,,,,,,,,,,,,,,,,,,,=#",
" :,,,,,,,,,,,,,,,,,,,,,,,,,,,,,,,,,,,,,,,,@-,,,,,,,,,,,,,,,,,,,,,,,,,,,,,,,,,,,,,,,,&&,,,,,,,,,,,,,,,,,,,,,,,,,,,,,,,,,,,,,,,,=#",
" :,,,,,,,,,,,,,,,,,,,,,,,,,,,,,,,,,,,,,,,,@-,,,,,,,,,,,,,,,,,,,,,,,,,,,,,,,,,,,,,,,,&&,,,,,,,,,,,,,,,,,,,,,,,,,,,,,,,,,,,,,,,,=#",
" :,,,,,,,,,,,,,,,,,,,,,,,,,,,,,,,,,,,,,,,,@-,,,,,,,,,,,,,,,,,,,,,,,,,,,,,,,,,,,,,,,,&&,,,,,,,,,,,,,,,,,,,,,,,,,,,,,,,,,,,,,,,,=#",
" :,,,,,,,,,,,,,,,,,,,,,,,,,,,,,,,,,,,,,,,,@-,,,,,,,,,,,,,,,,,,,,,,,,,,,,,,,,,,,,,,,,&&,,,,,,,,,,,,,,,,,,,,,,,,,,,,,,,,,,,,,,,,=#",
" :,,,,,,,,,,,,,,,,,,,,,,,,,,,,,,,,,,,,,,,,@-,,,,,,,,,,,,,,,,,,,,,,,,,,,,,,,,,,,,,,,,&&,,,,,,,,,,,,,,,,,,,,,,,,,,,,,,,,,,,,,,,,=#",
" @****************************************.+****************************************oO****************************************+.",
" @****************************************.+****************************************oO****************************************+.",
" :,,,,,,,,,,,,,,,,,,,,,,,,,,,,,,,,,,,,,,,,@-,,,,,,,,,,,,,,,,,,,,,,,,,,,,,,,,,,,,,,,,&&,,,,,,,,,,,,,,,,,,,,,,,,,,,,,,,,,,,,,,,,=#",
" :,,,,,,,,,,,,,,,,,,,,,,,,,,,,,,,,,,,,,,,,@-,,,,,,,,,,,,,,,,,,,,,,,,,,,,,,,,,,,,,,,,&&,,,,,,,,,,,,,,,,,,,,,,,,,,,,,,,,,,,,,,,,=#",
" :,,,,,,,,,,,,,,,,,,,,,,,,,,,,,,,,,,,,,,,,@-,,,,,,,,,,,,,,,,,,,,,,,,,,,,,,,,,,,,,,,,&&,,,,,,,,,,,,,,,,,,,,,,,,,,,,,,,,,,,,,,,,=#",
" :,,,,,,,,,,,,,,,,,,,,,,,,,,,,,,,,,,,,,,,,@-,,,,,,,,,,,,,,,,,,,,,,,,,,,,,,,,,,,,,,,,&&,,,,,,,,,,,,,,,,,,,,,,,,,,,,,,,,,,,,,,,,=#",
" :,,,,,,,,,,,,,,,,,,,,,,,,,,,,,,,,,,,,,,,,@-,,,,,,,,,,,,,,,,,,,,,,,,,,,,,,,,,,,,,,,,&&,,,,,,,,,,,,,,,,,,,,,,,,,,,,,,,,,,,,,,,,=#",
" :,,,,,,,,,,,,,,,,,,,,,,,,,,,,,,,,,,,,,,,,@-,,,,,,,,,,,,,,,,,,,,,,,,,,,,,,,,,,,,,,,,&&,,,,,,,,,,,,,,,,,,,,,,,,,,,,,,,,,,,,,,,,=#",
" :,,,,,,,,,,,,,,,,,,,,,,,,,,,,,,,,,,,,,,,,@-,,,,,,,,,,,,,,,,,,,,,,,,,,,,,,,,,,,,,,,,&&,,,,,,,,,,,,,,,,,,,,,,,,,,,,,,,,,,,,,,,,=#",
" :,,,,,,,,,,,,,,,,,,,,,,,,,,,,,,,,,,,,,,,,@-,,,,,,,,,,,,,,,,,,,,,,,,,,,,,,,,,,,,,,,,&&,,,,,,,,,,,,,,,,,,,,,,,,,,,,,,,,,,,,,,,,=#",
" :,,,,,,,,,,,,,,,,,,,,,,,,,,,,,,,,,,,,,,,,@-,,,,,,,,,,,,,,,,,,,,,,,,,,,,,,,,,,,,,,,,&&,,,,,,,,,,,,,,,,,,,,,,,,,,,,,,,,,,,,,,,,=#",
" :,,,,,,,,,,,,,,,,,,,,,,,,,,,,,,,,,,,,,,,,@-,,,,,,,,,,,,,,,,,,,,,,,,,,,,,,,,,,,,,,,,&&,,,,,,,,,,,,,,,,,,,,,,,,,,,,,,,,,,,,,,,,=#",
" :,,,,,,,,,,,,,,,,,,,,,,,,,,,,,,,,,,,,,,,,@-,,,,,,,,,,,,,,,,,,,,,,,,,,,,,,,,,,,,,,,,&&,,,,,,,,,,,,,,,,,,,,,,,,,,,,,,,,,,,,,,,,=#",
" :,,,,,,,,,,,,,,,,,,,,,,,,,,,,,,,,,,,,,,,,@-,,,,,,,,,,,,,,,,,,,,,,,,,,,,,,,,,,,,,,,,&&,,,,,,,,,,,,,,,,,,,,,,,,,,,,,,,,,,,,,,,,=#",
" :,,,,,,,,,,,,,,,,,,,,,,,,,,,,,,,,,,,,,,,,@-,,,,,,,,,,,,,,,,,,,,,,,,,,,,,,,,,,,,,,,,&&,,,,,,,,,,,,,,,,,,,,,,,,,,,,,,,,,,,,,,,,=#",
" :,,,,,,,,,,,,,,,,,,,,,,,,,,,,,,,,,,,,,,,,@-,,,,,,,,,,,,,,,,,,,,,,,,,,,,,,,,,,,,,,,,&&,,,,,,,,,,,,,,,,,,,,,,,,,,,,,,,,,,,,,,,,=#",
" :,,,,,,,,,,,,,,,,,,,,,,,,,,,,,,,,,,,,,,,,@-,,,,,,,,,,,,,,,,,,,,,,,,,,,,,,,,,,,,,,,,&&,,,,,,,,,,,,,,,,,,,,,,,,,,,,,,,,,,,,,,,,=#",
" :,,,,,,,,,,,,,,,,,,,,,,,,,,,,,,,,,,,,,,,,@-,,,,,,,,,,,,,,,,,,,,,,,,,,,,,,,,,,,,,,,,&&,,,,,,,,,,,,,,,,,,,,,,,,,,,,,,,,,,,,,,,,=#",
" :,,,,,,,,,,,,,,,,,,,,,,,,,,,,,,,,,,,,,,,,@-,,,,,,,,,,,,,,,,,,,,,,,,,,,,,,,,,,,,,,,,&&,,,,,,,,,,,,,,,,,,,,,,,,,,,,,,,,,,,,,,,,=#",
" :,,,,,,,,,,,,,,,,,,,,,,,,,,,,,,,,,,,,,,,,@-,,,,,,,,,,,,,,,,,,,,,,,,,,,,,,,,,,,,,,,,&&,,,,,,,,,,,,,,,,,,,,,,,,,,,,,,,,,,,,,,,,=#",
" :,,,,,,,,,,,,,,,,,,,,,,,,,,,,,,,,,,,,,,,,@-,,,,,,,,,,,,,,,,,,,,,,,,,,,,,,,,,,,,,,,,&&,,,,,,,,,,,,,,,,,,,,,,,,,,,,,,,,,,,,,,,,=#",
" :,,,,,,,,,,,,,,,,,,,,,,,,,,,,,,,,,,,,,,,,@-,,,,,,,,,,,,,,,,,,,,,,,,,,,,,,,,,,,,,,,,&&,,,,,,,,,,,,,,,,,,,,,,,,,,,,,,,,,,,,,,,,=#",
" :,,,,,,,,,,,,,,,,,,,,,,,,,,,,,,,,,,,,,,,,@-,,,,,,,,,,,,,,,,,,,,,,,,,,,,,,,,,,,,,,,,&&,,,,,,,,,,,,,,,,,,,,,,,,,,,,,,,,,,,,,,,,=#",
" :,,,,,,,,,,,,,,,,,,,,,,,,,,,,,,,,,,,,,,,,@-,,,,,,,,,,,,,,,,,,,,,,,,,,,,,,,,,,,,,,,,&&,,,,,,,,,,,,,,,,,,,,,,,,,,,,,,,,,,,,,,,,=#",
" :,,,,,,,,,,,,,,,,,,,,,,,,,,,,,,,,,,,,,,,,@-,,,,,,,,,,,,,,,,,,,,,,,,,,,,,,,,,,,,,,,,&&,,,,,,,,,,,,,,,,,,,,,,,,,,,,,,,,,,,,,,,,=#",
" :,,,,,,,,,,,,,,,,,,,,,,,,,,,,,,,,,,,,,,,,@-,,,,,,,,,,,,,,,,,,,,,,,,,,,,,,,,,,,,,,,,&&,,,,,,,,,,,,,,,,,,,,,,,,,,,,,,,,,,,,,,,,=#",
" :,,,,,,,,,,,,,,,,,,,,,,,,,,,,,,,,,,,,,,,,@-,,,,,,,,,,,,,,,,,,,,,,,,,,,,,,,,,,,,,,,,&&,,,,,,,,,,,,,,,,,,,,,,,,,,,,,,,,,,,,,,,,=#",
" :,,,,,,,,,,,,,,,,,,,,,,,,,,,,,,,,,,,,,,,,@-,,,,,,,,,,,,,,,,,,,,,,,,,,,,,,,,,,,,,,,,&&,,,,,,,,,,,,,,,,,,,,,,,,,,,,,,,,,,,,,,,,=#",
" :,,,,,,,,,,,,,,,,,,,,,,,,,,,,,,,,,,,,,,,,@-,,,,,,,,,,,,,,,,,,,,,,,,,,,,,,,,,,,,,,,,&&,,,,,,,,,,,,,,,,,,,,,,,,,,,,,,,,,,,,,,,,=#",
" :,,,,,,,,,,,,,,,,,,,,,,,,,,,,,,,,,,,,,,,,@-,,,,,,,,,,,,,,,,,,,,,,,,,,,,,,,,,,,,,,,,&&,,,,,,,,,,,,,,,,,,,,,,,,,,,,,,,,,,,,,,,,=#",
" :,,,,,,,,,,,,,,,,,,,,,,,,,,,,,,,,,,,,,,,,@-,,,,,,,,,,,,,,,,,,,,,,,,,,,,,,,,,,,,,,,,&&,,,,,,,,,,,,,,,,,,,,,,,,,,,,,,,,,,,,,,,,=#",
" :,,,,,,,,,,,,,,,,,,,,,,,,,,,,,,,,,,,,,,,,@-,,,,,,,,,,,,,,,,,,,,,,,,,,,,,,,,,,,,,,,,&&,,,,,,,,,,,,,,,,,,,,,,,,,,,,,,,,,,,,,,,,=#",
" :,,,,,,,,,,,,,,,,,,,,,,,,,,,,,,,,,,,,,,,,@-,,,,,,,,,,,,,,,,,,,,,,,,,,,,,,,,,,,,,,,,&&,,,,,,,,,,,,,,,,,,,,,,,,,,,,,,,,,,,,,,,,=#",
" :,,,,,,,,,,,,,,,,,,,,,,,,,,,,,,,,,,,,,,,,@-,,,,,,,,,,,,,,,,,,,,,,,,,,,,,,,,,,,,,,,,&&,,,,,,,,,,,,,,,,,,,,,,,,,,,,,,,,,,,,,,,,=#",
" :,,,,,,,,,,,,,,,,,,,,,,,,,,,,,,,,,,,,,,,,@-,,,,,,,,,,,,,,,,,,,,,,,,,,,,,,,,,,,,,,,,&&,,,,,,,,,,,,,,,,,,,,,,,,,,,,,,,,,,,,,,,,=#",
" :,,,,,,,,,,,,,,,,,,,,,,,,,,,,,,,,,,,,,,,,@-,,,,,,,,,,,,,,,,,,,,,,,,,,,,,,,,,,,,,,,,&&,,,,,,,,,,,,,,,,,,,,,,,,,,,,,,,,,,,,,,,,=#",
" :,,,,,,,,,,,,,,,,,,,,,,,,,,,,,,,,,,,,,,,,@-,,,,,,,,,,,,,,,,,,,,,,,,,,,,,,,,,,,,,,,,&&,,,,,,,,,,,,,,,,,,,,,,,,,,,,,,,,,,,,,,,,=#",
" :,,,,,,,,,,,,,,,,,,,,,,,,,,,,,,,,,,,,,,,,@-,,,,,,,,,,,,,,,,,,,,,,,,,,,,,,,,,,,,,,,,&&,,,,,,,,,,,,,,,,,,,,,,,,,,,,,,,,,,,,,,,,=#",
" :,,,,,,,,,,,,,,,,,,,,,,,,,,,,,,,,,,,,,,,,@-,,,,,,,,,,,,,,,,,,,,,,,,,,,,,,,,,,,,,,,,&&,,,,,,,,,,,,,,,,,,,,,,,,,,,,,,,,,,,,,,,,=#",
" :,,,,,,,,,,,,,,,,,,,,,,,,,,,,,,,,,,,,,,,,@-,,,,,,,,,,,,,,,,,,,,,,,,,,,,,,,,,,,,,,,,&&,,,,,,,,,,,,,,,,,,,,,,,,,,,,,,,,,,,,,,,,=#",
" :,,,,,,,,,,,,,,,,,,,,,,,,,,,,,,,,,,,,,,,,@-,,,,,,,,,,,,,,,,,,,,,,,,,,,,,,,,,,,,,,,,&&,,,,,,,,,,,,,,,,,,,,,,,,,,,,,,,,,,,,,,,,=#",
" :,,,,,,,,,,,,,,,,,,,,,,,,,,,,,,,,,,,,,,,,@-,,,,,,,,,,,,,,,,,,,,,,,,,,,,,,,,,,,,,,,,&&,,,,,,,,,,,,,,,,,,,,,,,,,,,,,,,,,,,,,,,,=#",
" %;;;;;;;;;;;;;;;;;;;;;;;;;;;;;;;;;;;;;;;;X#;;;;;;;;;;;;;;;;;;;;;;;;;;;;;;;;;;;;;;;;++;;;;;;;;;;;;;;;;;;;;;;;;;;;;;;;;;;;;;;;;#X",
" O######################################## X########################################..########################################X "
};
