/* XPM */
static char *_defb549867d40b4bbd094a170b4e64agWNU9ZdTqZNvPMwO[] = {
/* columns rows colors chars-per-pixel */
"128 128 16 1 ",
"  c black",
". c #060101",
"X c #0A0202",
"o c #0D0202",
"O c #150404",
"+ c #1B0505",
"@ c #1F0606",
"# c #2A0808",
"$ c #370A0A",
"% c #380A0A",
"& c #3F0C0C",
"* c #541010",
"= c #5F1212",
"- c #701515",
"; c #7F1818",
": c #FF3131",
/* pixels */
"@                                                                                                                               ",
" %;;;;;;;;;;;;;;;;;;;;;;;;;;;;;;;;;;;;;;;;o#;;;;;;;;;;;;;;;;;;;;;;;;;;;;;;;;;;;;;;;;+@;;;;;;;;;;;;;;;;;;;;;;;;;;;;;;;;;;;;;;;;#o",
" -::::::::::::::::::::::::::::::::::::::::+*::::::::::::::::::::::::::::::::::::::::$%::::::::::::::::::::::::::::::::::::::::*@",
" -::::::::::::::::::::::::::::::::::::::::+*::::::::::::::::::::::::::::::::::::::::$%::::::::::::::::::::::::::::::::::::::::*@",
" -::::::::::::::::::::::::::::::::::::::::+*::::::::::::::::::::::::::::::::::::::::$%::::::::::::::::::::::::::::::::::::::::*@",
" -::::::::::::::::::::::::::::::::::::::::+*::::::::::::::::::::::::::::::::::::::::$%::::::::::::::::::::::::::::::::::::::::*@",
" -::::::::::::::::::::::::::::::::::::::::+*::::::::::::::::::::::::::::::::::::::::$%::::::::::::::::::::::::::::::::::::::::*@",
" -::::::::::::::::::::::::::::::::::::::::+*::::::::::::::::::::::::::::::::::::::::$%::::::::::::::::::::::::::::::::::::::::*@",
" -::::::::::::::::::::::::::::::::::::::::+*::::::::::::::::::::::::::::::::::::::::$%::::::::::::::::::::::::::::::::::::::::*@",
" -::::::::::::::::::::::::::::::::::::::::+*::::::::::::::::::::::::::::::::::::::::$%::::::::::::::::::::::::::::::::::::::::*@",
" -::::::::::::::::::::::::::::::::::::::::+*::::::::::::::::::::::::::::::::::::::::$%::::::::::::::::::::::::::::::::::::::::*@",
" -::::::::::::::::::::::::::::::::::::::::+*::::::::::::::::::::::::::::::::::::::::$%::::::::::::::::::::::::::::::::::::::::*@",
" -::::::::::::::::::::::::::::::::::::::::+*::::::::::::::::::::::::::::::::::::::::$%::::::::::::::::::::::::::::::::::::::::*+",
" -::::::::::::::::::::::::::::::::::::::::+*::::::::::::::::::::::::::::::::::::::::$%::::::::::::::::::::::::::::::::::::::::*@",
" -::::::::::::::::::::::::::::::::::::::::+*::::::::::::::::::::::::::::::::::::::::$%::::::::::::::::::::::::::::::::::::::::*@",
" -::::::::::::::::::::::::::::::::::::::::+*::::::::::::::::::::::::::::::::::::::::$%::::::::::::::::::::::::::::::::::::::::*@",
" -::::::::::::::::::::::::::::::::::::::::+*::::::::::::::::::::::::::::::::::::::::$%::::::::::::::::::::::::::::::::::::::::*@",
" -::::::::::::::::::::::::::::::::::::::::+*::::::::::::::::::::::::::::::::::::::::$%::::::::::::::::::::::::::::::::::::::::*@",
" -::::::::::::::::::::::::::::::::::::::::+*::::::::::::::::::::::::::::::::::::::::$%::::::::::::::::::::::::::::::::::::::::*@",
" -::::::::::::::::::::::::::::::::::::::::+*::::::::::::::::::::::::::::::::::::::::$%::::::::::::::::::::::::::::::::::::::::*@",
" -::::::::::::::::::::::::::::::::::::::::+*::::::::::::::::::::::::::::::::::::::::$%::::::::::::::::::::::::::::::::::::::::*@",
" -::::::::::::::::::::::::::::::::::::::::+*::::::::::::::::::::::::::::::::::::::::$%::::::::::::::::::::::::::::::::::::::::*@",
" -::::::::::::::::::::::::::::::::::::::::+*::::::::::::::::::::::::::::::::::::::::$%::::::::::::::::::::::::::::::::::::::::*@",
" -::::::::::::::::::::::::::::::::::::::::+*::::::::::::::::::::::::::::::::::::::::$%::::::::::::::::::::::::::::::::::::::::*@",
" -::::::::::::::::::::::::::::::::::::::::+*::::::::::::::::::::::::::::::::::::::::$%::::::::::::::::::::::::::::::::::::::::*+",
" -::::::::::::::::::::::::::::::::::::::::+*::::::::::::::::::::::::::::::::::::::::$%::::::::::::::::::::::::::::::::::::::::*@",
" -::::::::::::::::::::::::::::::::::::::::+*::::::::::::::::::::::::::::::::::::::::$%::::::::::::::::::::::::::::::::::::::::*@",
" -::::::::::::::::::::::::::::::::::::::::+*::::::::::::::::::::::::::::::::::::::::$%::::::::::::::::::::::::::::::::::::::::*@",
" -::::::::::::::::::::::::::::::::::::::::+*::::::::::::::::::::::::::::::::::::::::$%::::::::::::::::::::::::::::::::::::::::*@",
" -::::::::::::::::::::::::::::::::::::::::+*::::::::::::::::::::::::::::::::::::::::$%::::::::::::::::::::::::::::::::::::::::*@",
" -::::::::::::::::::::::::::::::::::::::::+*::::::::::::::::::::::::::::::::::::::::$%::::::::::::::::::::::::::::::::::::::::*@",
" -::::::::::::::::::::::::::::::::::::::::+*::::::::::::::::::::::::::::::::::::::::$%::::::::::::::::::::::::::::::::::::::::*@",
" -::::::::::::::::::::::::::::::::::::::::+*::::::::::::::::::::::::::::::::::::::::$%::::::::::::::::::::::::::::::::::::::::*@",
" -::::::::::::::::::::::::::::::::::::::::+*::::::::::::::::::::::::::::::::::::::::$%::::::::::::::::::::::::::::::::::::::::*@",
" -::::::::::::::::::::::::::::::::::::::::+*::::::::::::::::::::::::::::::::::::::::$%::::::::::::::::::::::::::::::::::::::::*@",
" -::::::::::::::::::::::::::::::::::::::::+*::::::::::::::::::::::::::::::::::::::::$%::::::::::::::::::::::::::::::::::::::::*@",
" -::::::::::::::::::::::::::::::::::::::::+*::::::::::::::::::::::::::::::::::::::::$%::::::::::::::::::::::::::::::::::::::::*+",
" -::::::::::::::::::::::::::::::::::::::::+*::::::::::::::::::::::::::::::::::::::::$%::::::::::::::::::::::::::::::::::::::::*@",
" -::::::::::::::::::::::::::::::::::::::::+*::::::::::::::::::::::::::::::::::::::::$%::::::::::::::::::::::::::::::::::::::::*@",
" -::::::::::::::::::::::::::::::::::::::::+*::::::::::::::::::::::::::::::::::::::::$%::::::::::::::::::::::::::::::::::::::::*@",
" -::::::::::::::::::::::::::::::::::::::::+*::::::::::::::::::::::::::::::::::::::::$%::::::::::::::::::::::::::::::::::::::::*@",
" -::::::::::::::::::::::::::::::::::::::::+*::::::::::::::::::::::::::::::::::::::::$%::::::::::::::::::::::::::::::::::::::::*@",
" o@@@@@@@@@@@@@@@@@@@@@@@@@@@@@@@@@@@@@@@@ X@@@@@@@@@@@@@@@@@@@@@@@@@@@@@@@@@@@@@@@@..@@@@@@@@@@@@@@@@@@@@@@@@@@@@@@@@@@@@@@@@X ",
" #========================================X@========================================OO========================================@X",
" -::::::::::::::::::::::::::::::::::::::::+*::::::::::::::::::::::::::::::::::::::::$%::::::::::::::::::::::::::::::::::::::::*@",
" -::::::::::::::::::::::::::::::::::::::::+*::::::::::::::::::::::::::::::::::::::::$%::::::::::::::::::::::::::::::::::::::::*@",
" -::::::::::::::::::::::::::::::::::::::::+*::::::::::::::::::::::::::::::::::::::::$%::::::::::::::::::::::::::::::::::::::::*@",
" -::::::::::::::::::::::::::::::::::::::::+*::::::::::::::::::::::::::::::::::::::::$%::::::::::::::::::::::::::::::::::::::::*@",
" -::::::::::::::::::::::::::::::::::::::::+*::::::::::::::::::::::::::::::::::::::::$%::::::::::::::::::::::::::::::::::::::::*+",
" -::::::::::::::::::::::::::::::::::::::::+*::::::::::::::::::::::::::::::::::::::::$%::::::::::::::::::::::::::::::::::::::::*@",
" -::::::::::::::::::::::::::::::::::::::::+*::::::::::::::::::::::::::::::::::::::::$%::::::::::::::::::::::::::::::::::::::::*@",
" -::::::::::::::::::::::::::::::::::::::::+*::::::::::::::::::::::::::::::::::::::::$%::::::::::::::::::::::::::::::::::::::::*@",
" -::::::::::::::::::::::::::::::::::::::::+*::::::::::::::::::::::::::::::::::::::::$%::::::::::::::::::::::::::::::::::::::::*@",
" -::::::::::::::::::::::::::::::::::::::::+*::::::::::::::::::::::::::::::::::::::::$%::::::::::::::::::::::::::::::::::::::::*@",
" -::::::::::::::::::::::::::::::::::::::::+*::::::::::::::::::::::::::::::::::::::::$%::::::::::::::::::::::::::::::::::::::::*@",
" -::::::::::::::::::::::::::::::::::::::::+*::::::::::::::::::::::::::::::::::::::::$%::::::::::::::::::::::::::::::::::::::::*@",
" -::::::::::::::::::::::::::::::::::::::::+*::::::::::::::::::::::::::::::::::::::::$%::::::::::::::::::::::::::::::::::::::::*@",
" -::::::::::::::::::::::::::::::::::::::::+*::::::::::::::::::::::::::::::::::::::::$%::::::::::::::::::::::::::::::::::::::::*@",
" -::::::::::::::::::::::::::::::::::::::::+*::::::::::::::::::::::::::::::::::::::::$%::::::::::::::::::::::::::::::::::::::::*@",
" -::::::::::::::::::::::::::::::::::::::::+*::::::::::::::::::::::::::::::::::::::::$%::::::::::::::::::::::::::::::::::::::::*@",
" -::::::::::::::::::::::::::::::::::::::::+*::::::::::::::::::::::::::::::::::::::::$%::::::::::::::::::::::::::::::::::::::::*+",
" -::::::::::::::::::::::::::::::::::::::::+*::::::::::::::::::::::::::::::::::::::::$%::::::::::::::::::::::::::::::::::::::::*@",
" -::::::::::::::::::::::::::::::::::::::::+*::::::::::::::::::::::::::::::::::::::::$%::::::::::::::::::::::::::::::::::::::::*@",
" -::::::::::::::::::::::::::::::::::::::::+*::::::::::::::::::::::::::::::::::::::::$%::::::::::::::::::::::::::::::::::::::::*@",
" -::::::::::::::::::::::::::::::::::::::::+*::::::::::::::::::::::::::::::::::::::::$%::::::::::::::::::::::::::::::::::::::::*@",
" -::::::::::::::::::::::::::::::::::::::::+*::::::::::::::::::::::::::::::::::::::::$%::::::::::::::::::::::::::::::::::::::::*@",
" -::::::::::::::::::::::::::::::::::::::::+*::::::::::::::::::::::::::::::::::::::::$%::::::::::::::::::::::::::::::::::::::::*@",
" -::::::::::::::::::::::::::::::::::::::::+*::::::::::::::::::::::::::::::::::::::::$%::::::::::::::::::::::::::::::::::::::::*@",
" -::::::::::::::::::::::::::::::::::::::::+*::::::::::::::::::::::::::::::::::::::::$%::::::::::::::::::::::::::::::::::::::::*@",
" -::::::::::::::::::::::::::::::::::::::::+*::::::::::::::::::::::::::::::::::::::::$%::::::::::::::::::::::::::::::::::::::::*@",
" -::::::::::::::::::::::::::::::::::::::::+*::::::::::::::::::::::::::::::::::::::::$%::::::::::::::::::::::::::::::::::::::::*@",
" -::::::::::::::::::::::::::::::::::::::::+*::::::::::::::::::::::::::::::::::::::::$%::::::::::::::::::::::::::::::::::::::::*@",
" -::::::::::::::::::::::::::::::::::::::::+*::::::::::::::::::::::::::::::::::::::::$%::::::::::::::::::::::::::::::::::::::::*+",
" -::::::::::::::::::::::::::::::::::::::::+*::::::::::::::::::::::::::::::::::::::::$%::::::::::::::::::::::::::::::::::::::::*@",
" -::::::::::::::::::::::::::::::::::::::::+*::::::::::::::::::::::::::::::::::::::::$%::::::::::::::::::::::::::::::::::::::::*@",
" -::::::::::::::::::::::::::::::::::::::::+*::::::::::::::::::::::::::::::::::::::::$%::::::::::::::::::::::::::::::::::::::::*@",
" -::::::::::::::::::::::::::::::::::::::::+*::::::::::::::::::::::::::::::::::::::::$%::::::::::::::::::::::::::::::::::::::::*@",
" -::::::::::::::::::::::::::::::::::::::::+*::::::::::::::::::::::::::::::::::::::::$%::::::::::::::::::::::::::::::::::::::::*@",
" -::::::::::::::::::::::::::::::::::::::::+*::::::::::::::::::::::::::::::::::::::::$%::::::::::::::::::::::::::::::::::::::::*@",
" -::::::::::::::::::::::::::::::::::::::::+*::::::::::::::::::::::::::::::::::::::::$%::::::::::::::::::::::::::::::::::::::::*@",
" -::::::::::::::::::::::::::::::::::::::::+*::::::::::::::::::::::::::::::::::::::::$%::::::::::::::::::::::::::::::::::::::::*@",
" -::::::::::::::::::::::::::::::::::::::::+*::::::::::::::::::::::::::::::::::::::::$%::::::::::::::::::::::::::::::::::::::::*@",
" -::::::::::::::::::::::::::::::::::::::::+*::::::::::::::::::::::::::::::::::::::::$%::::::::::::::::::::::::::::::::::::::::*@",
" -::::::::::::::::::::::::::::::::::::::::+*::::::::::::::::::::::::::::::::::::::::$%::::::::::::::::::::::::::::::::::::::::*@",
" @&&&&&&&&&&&&&&&&&&&&&&&&&&&&&&&&&&&&&&&&.O&&&&&&&&&&&&&&&&&&&&&&&&&&&&&&&&&&&&&&&&oo&&&&&&&&&&&&&&&&&&&&&&&&&&&&&&&&&&&&&&&&O.",
" @&&&&&&&&&&&&&&&&&&&&&&&&&&&&&&&&&&&&&&&&.O&&&&&&&&&&&&&&&&&&&&&&&&&&&&&&&&&&&&&&&&oo&&&&&&&&&&&&&&&&&&&&&&&&&&&&&&&&&&&&&&&&O.",
" -::::::::::::::::::::::::::::::::::::::::+*::::::::::::::::::::::::::::::::::::::::$%::::::::::::::::::::::::::::::::::::::::*@",
" -::::::::::::::::::::::::::::::::::::::::+*::::::::::::::::::::::::::::::::::::::::$%::::::::::::::::::::::::::::::::::::::::*@",
" -::::::::::::::::::::::::::::::::::::::::+*::::::::::::::::::::::::::::::::::::::::$%::::::::::::::::::::::::::::::::::::::::*@",
" -::::::::::::::::::::::::::::::::::::::::+*::::::::::::::::::::::::::::::::::::::::$%::::::::::::::::::::::::::::::::::::::::*@",
" -::::::::::::::::::::::::::::::::::::::::+*::::::::::::::::::::::::::::::::::::::::$%::::::::::::::::::::::::::::::::::::::::*@",
" -::::::::::::::::::::::::::::::::::::::::+*::::::::::::::::::::::::::::::::::::::::$%::::::::::::::::::::::::::::::::::::::::*@",
" -::::::::::::::::::::::::::::::::::::::::+*::::::::::::::::::::::::::::::::::::::::$%::::::::::::::::::::::::::::::::::::::::*@",
" -::::::::::::::::::::::::::::::::::::::::+*::::::::::::::::::::::::::::::::::::::::$%::::::::::::::::::::::::::::::::::::::::*@",
" -::::::::::::::::::::::::::::::::::::::::+*::::::::::::::::::::::::::::::::::::::::$%::::::::::::::::::::::::::::::::::::::::*@",
" -::::::::::::::::::::::::::::::::::::::::+*::::::::::::::::::::::::::::::::::::::::$%::::::::::::::::::::::::::::::::::::::::*@",
" -::::::::::::::::::::::::::::::::::::::::+*::::::::::::::::::::::::::::::::::::::::$%::::::::::::::::::::::::::::::::::::::::*+",
" -::::::::::::::::::::::::::::::::::::::::+*::::::::::::::::::::::::::::::::::::::::$%::::::::::::::::::::::::::::::::::::::::*@",
" -::::::::::::::::::::::::::::::::::::::::+*::::::::::::::::::::::::::::::::::::::::$%::::::::::::::::::::::::::::::::::::::::*@",
" -::::::::::::::::::::::::::::::::::::::::+*::::::::::::::::::::::::::::::::::::::::$%::::::::::::::::::::::::::::::::::::::::*@",
" -::::::::::::::::::::::::::::::::::::::::+*::::::::::::::::::::::::::::::::::::::::$%::::::::::::::::::::::::::::::::::::::::*@",
" -::::::::::::::::::::::::::::::::::::::::+*::::::::::::::::::::::::::::::::::::::::$%::::::::::::::::::::::::::::::::::::::::*@",
" -::::::::::::::::::::::::::::::::::::::::+*::::::::::::::::::::::::::::::::::::::::$%::::::::::::::::::::::::::::::::::::::::*@",
" -::::::::::::::::::::::::::::::::::::::::+*::::::::::::::::::::::::::::::::::::::::$%::::::::::::::::::::::::::::::::::::::::*@",
" -::::::::::::::::::::::::::::::::::::::::+*::::::::::::::::::::::::::::::::::::::::$%::::::::::::::::::::::::::::::::::::::::*@",
" -::::::::::::::::::::::::::::::::::::::::+*::::::::::::::::::::::::::::::::::::::::$%::::::::::::::::::::::::::::::::::::::::*@",
" -::::::::::::::::::::::::::::::::::::::::+*::::::::::::::::::::::::::::::::::::::::$%::::::::::::::::::::::::::::::::::::::::*@",
" -::::::::::::::::::::::::::::::::::::::::+*::::::::::::::::::::::::::::::::::::::::$%::::::::::::::::::::::::::::::::::::::::*@",
" -::::::::::::::::::::::::::::::::::::::::+*::::::::::::::::::::::::::::::::::::::::$%::::::::::::::::::::::::::::::::::::::::*+",
" -::::::::::::::::::::::::::::::::::::::::+*::::::::::::::::::::::::::::::::::::::::$%::::::::::::::::::::::::::::::::::::::::*@",
" -::::::::::::::::::::::::::::::::::::::::+*::::::::::::::::::::::::::::::::::::::::$%::::::::::::::::::::::::::::::::::::::::*@",
" -::::::::::::::::::::::::::::::::::::::::+*::::::::::::::::::::::::::::::::::::::::$%::::::::::::::::::::::::::::::::::::::::*@",
" -::::::::::::::::::::::::::::::::::::::::+*::::::::::::::::::::::::::::::::::::::::$%::::::::::::::::::::::::::::::::::::::::*@",
" -::::::::::::::::::::::::::::::::::::::::+*::::::::::::::::::::::::::::::::::::::::$%::::::::::::::::::::::::::::::::::::::::*@",
" -::::::::::::::::::::::::::::::::::::::::+*::::::::::::::::::::::::::::::::::::::::$%::::::::::::::::::::::::::::::::::::::::*@",
" -::::::::::::::::::::::::::::::::::::::::+*::::::::::::::::::::::::::::::::::::::::$%::::::::::::::::::::::::::::::::::::::::*@",
" -::::::::::::::::::::::::::::::::::::::::+*::::::::::::::::::::::::::::::::::::::::$%::::::::::::::::::::::::::::::::::::::::*@",
" -::::::::::::::::::::::::::::::::::::::::+*::::::::::::::::::::::::::::::::::::::::$%::::::::::::::::::::::::::::::::::::::::*@",
" -::::::::::::::::::::::::::::::::::::::::+*::::::::::::::::::::::::::::::::::::::::$%::::::::::::::::::::::::::::::::::::::::*@",
" -::::::::::::::::::::::::::::::::::::::::+*::::::::::::::::::::::::::::::::::::::::$%::::::::::::::::::::::::::::::::::::::::*@",
" -::::::::::::::::::::::::::::::::::::::::+*::::::::::::::::::::::::::::::::::::::::$%::::::::::::::::::::::::::::::::::::::::*+",
" -::::::::::::::::::::::::::::::::::::::::+*::::::::::::::::::::::::::::::::::::::::$%::::::::::::::::::::::::::::::::::::::::*@",
" -::::::::::::::::::::::::::::::::::::::::+*::::::::::::::::::::::::::::::::::::::::$%::::::::::::::::::::::::::::::::::::::::*@",
" -::::::::::::::::::::::::::::::::::::::::+*::::::::::::::::::::::::::::::::::::::::$%::::::::::::::::::::::::::::::::::::::::*@",
" -::::::::::::::::::::::::::::::::::::::::+*::::::::::::::::::::::::::::::::::::::::$%::::::::::::::::::::::::::::::::::::::::*@",
" -::::::::::::::::::::::::::::::::::::::::+*::::::::::::::::::::::::::::::::::::::::$%::::::::::::::::::::::::::::::::::::::::*@",
" #========================================X@========================================OO========================================@X",
" o@@@@@@@@@@@@@@@@@@@@@@@@@@@@@@@@@@@@@@@@ X@@@@@@@@@@@@@@@@@@@@@@@@@@@@@@@@@@@@@@@@..@@@@@@@@@@@@@@@@@@@@@@@@@@@@@@@@@@@@@@@@X "
};
