/* XPM */
static char *_7fb40803ef142b8cf8fa0d5d5e248feHbqo0tu4CPVAbkYA[] = {
/* columns rows colors chars-per-pixel */
"55 55 2 1 ",
"  c None",
". c #2B2A29",
/* pixels */
"                                                       ",
"                                                       ",
"                          ..                           ",
"                         ....                          ",
"                         ....                          ",
"                         ....                          ",
"                         ....                          ",
"                         ....                          ",
"                         ....                          ",
"                         ....                          ",
"                      ..........                       ",
"                    ...............                    ",
"                  ...................                  ",
"                .......  ....   ......                 ",
"               .....     ....     .....                ",
"              .....      ....       ....               ",
"             .....       ....        ....              ",
"            ....         ....         ....             ",
"            ....         ....          ....            ",
"           ....          ....           ...            ",
"           ...           ....           ....           ",
"          ....           ....            ...           ",
"          ...             ...            ....          ",
"          ...                             ...          ",
"         ....                             ...          ",
"         ....                             ...          ",
"  ....................          .....................  ",
"  ....................          .....................  ",
"  ....................          .....................  ",
"  ....................          ....................   ",
"         ....                             ...          ",
"         ....                             ...          ",
"          ...                            ....          ",
"          ...            ....            ...           ",
"          ....           ....            ...           ",
"           ...           ....           ....           ",
"           ....          ....          ....            ",
"            ....         ....          ....            ",
"             ....        ....         ....             ",
"             .....       ....        ....              ",
"              .....      ....      .....               ",
"               ......    ....    ......                ",
"                 ....... .............                 ",
"                  ..................                   ",
"                    ..............                     ",
"                       ........                        ",
"                         ....                          ",
"                         ....                          ",
"                         ....                          ",
"                         ....                          ",
"                         ....                          ",
"                         ....                          ",
"                         ....                          ",
"                                                       ",
"                                                       "
};
